<?xml version="1.0" encoding="iso-8859-1"?>
<!-- Generator: Adobe Illustrator 19.0.0, SVG Export Plug-In . SVG Version: 6.00 Build 0)  -->
<svg version="1.1" id="Layer_1" xmlns="http://www.w3.org/2000/svg" xmlns:xlink="http://www.w3.org/1999/xlink" x="0px" y="0px"
	 viewBox="0 0 512 512" style="enable-background:new 0 0 512 512;" xml:space="preserve">
<g>
	<rect x="189.217" y="122.435" style="fill:#004FAC;" width="133.565" height="33.391"/>
	<rect x="189.217" y="345.043" style="fill:#004FAC;" width="133.565" height="33.391"/>
	<rect x="122.435" y="189.217" style="fill:#004FAC;" width="33.391" height="122.435"/>
	<rect x="66.783" y="66.783" style="fill:#004FAC;" width="33.391" height="33.391"/>
	<polygon style="fill:#004FAC;" points="66.783,411.826 66.783,345.043 33.391,345.043 33.391,166.957 66.783,166.957 
		66.783,100.174 33.391,100.174 33.391,166.957 0,166.957 0,345.043 33.391,345.043 33.391,411.826 66.783,411.826 66.783,445.217 
		100.174,445.217 100.174,411.826 	"/>
	<polygon style="fill:#004FAC;" points="166.957,33.391 345.043,33.391 345.043,66.783 411.826,66.783 411.826,100.174 
		445.217,100.174 445.217,66.783 411.826,66.783 411.826,33.391 345.043,33.391 345.043,0 166.957,0 166.957,33.391 100.174,33.391 
		100.174,66.783 166.957,66.783 	"/>
	<rect x="445.217" y="100.174" style="fill:#004FAC;" width="33.391" height="66.783"/>
	<rect x="478.609" y="166.957" style="fill:#004FAC;" width="33.391" height="178.087"/>
	<rect x="389.565" y="345.043" style="fill:#004FAC;" width="89.043" height="33.391"/>
	<polygon style="fill:#004FAC;" points="345.043,478.609 166.957,478.609 166.957,445.217 100.174,445.217 100.174,478.609 
		166.957,478.609 166.957,512 345.043,512 345.043,478.609 411.826,478.609 411.826,445.217 345.043,445.217 	"/>
	<polygon style="fill:#004FAC;" points="322.781,311.652 322.781,345.043 389.564,345.043 389.564,189.217 356.173,189.217 
		356.173,311.652 	"/>
	<rect x="322.783" y="155.826" style="fill:#004FAC;" width="33.391" height="33.391"/>
	<rect x="155.826" y="155.826" style="fill:#004FAC;" width="33.391" height="33.391"/>
	<rect x="155.826" y="311.652" style="fill:#004FAC;" width="33.391" height="33.391"/>
</g>
<g>
</g>
<g>
</g>
<g>
</g>
<g>
</g>
<g>
</g>
<g>
</g>
<g>
</g>
<g>
</g>
<g>
</g>
<g>
</g>
<g>
</g>
<g>
</g>
<g>
</g>
<g>
</g>
<g>
</g>
</svg>
