<?xml version="1.0" encoding="UTF-8" standalone="no"?>
<!DOCTYPE svg PUBLIC "-//W3C//DTD SVG 1.1//EN" "http://www.w3.org/Graphics/SVG/1.1/DTD/svg11.dtd">
<svg width="100%" height="100%" viewBox="0 0 512 512" version="1.1" xmlns="http://www.w3.org/2000/svg" xmlns:xlink="http://www.w3.org/1999/xlink" xml:space="preserve" xmlns:serif="http://www.serif.com/" style="fill-rule:evenodd;clip-rule:evenodd;stroke-linejoin:round;stroke-miterlimit:1.41421;">
    <path d="M478.609,211.478L478.609,178.087L378.435,178.087L378.435,144.696L378.435,33.391L345.043,33.391L345.043,0L278.261,0L244.87,0L244.87,144.696L211.478,144.696L211.478,211.478L178.087,211.478L178.087,244.87L144.696,244.87L0,244.87L0,478.609L178.087,478.609L178.087,512L445.217,512L445.217,478.609L478.609,478.609L478.609,467.478L478.609,445.217L478.609,411.826L512,411.826L512,211.478L478.609,211.478Z" style="fill:rgb(224,227,250);fill-rule:nonzero;"/>
    <path d="M0.016,244.87L0,244.87L0,278.261L0.016,278.261L0.016,445.217L0,445.217L0,478.609L144.696,478.609L144.696,244.87L0.016,244.87Z" style="fill:rgb(0,109,243);fill-rule:nonzero;"/>
    <path d="M345.043,33.391L345.043,0L244.87,0L244.87,144.696L211.478,144.696L211.478,211.478L178.087,211.478L178.087,244.87L0,244.87L0,311.652L178.087,311.652L178.087,278.261L211.478,278.261L211.478,244.87L244.87,244.87L244.87,178.087L278.261,178.087L278.261,66.783L378.435,66.783L378.435,33.391L345.043,33.391Z" style="fill:white;fill-opacity:0;fill-rule:nonzero;"/>
    <path d="M411.826,445.217L445.217,445.217L445.217,478.609L478.609,478.609L478.609,445.217L478.609,411.826L411.826,411.826L411.826,445.217Z" style="fill-rule:nonzero;"/>
    <rect x="211.478" y="144.696" width="33.391" height="66.783"/>
    <rect x="178.087" y="211.478" width="33.391" height="33.391"/>
    <rect x="178.087" y="478.609" width="267.13" height="33.391"/>
    <path d="M144.696,445.217L144.696,278.261L178.087,278.261L178.087,244.87L144.696,244.87L111.305,244.87L33.391,244.87L0,244.87L0,478.609L178.086,478.609L178.086,445.218L144.696,445.218L144.696,445.217ZM33.391,445.217L33.391,278.261L111.304,278.261L111.304,445.218L33.391,445.218L33.391,445.217Z" style="fill-rule:nonzero;"/>
    <path d="M278.261,33.391L345.043,33.391L345.043,0L278.261,0L244.87,0L244.87,144.696L278.261,144.696L278.261,33.391Z" style="fill-rule:nonzero;"/>
    <path d="M478.609,211.478L478.609,256L411.826,256L411.826,289.391L478.609,289.391L478.609,333.913L411.826,333.913L411.826,367.304L478.609,367.304L478.609,411.826L512,411.826L512,211.478L478.609,211.478Z" style="fill-rule:nonzero;"/>
    <path d="M345.043,211.478L478.609,211.478L478.609,178.087L378.435,178.087L378.435,33.391L345.043,33.391L345.043,211.478Z" style="fill-rule:nonzero;"/>
</svg>
