<?xml version="1.0" encoding="iso-8859-1"?>
<!-- Generator: Adobe Illustrator 19.0.0, SVG Export Plug-In . SVG Version: 6.00 Build 0)  -->
<svg version="1.1" id="Capa_1" xmlns="http://www.w3.org/2000/svg" xmlns:xlink="http://www.w3.org/1999/xlink" x="0px" y="0px"
	 viewBox="0 0 512 512" style="enable-background:new 0 0 512 512;" xml:space="preserve">
<g>
	<polygon style="fill:#F4E662;" points="323.746,459.239 323.746,414.071 323.746,368.904 323.746,323.746 368.903,323.746 
		414.071,323.746 414.071,278.579 368.903,278.579 323.746,278.579 278.578,278.579 278.578,323.746 278.578,368.904 
		278.578,414.071 278.578,459.239 278.578,504.396 323.746,504.396 368.903,504.396 414.071,504.396 414.071,459.239 
		368.903,459.239 	"/>
	<polygon style="fill:#F4E662;" points="414.071,323.746 414.071,368.904 414.071,414.071 414.071,459.239 459.238,459.239 
		459.238,414.071 459.238,368.904 459.238,323.746 	"/>
</g>
<g>
	<rect x="188.253" y="459.239" style="fill:#25C2CE;" width="45.168" height="45.157"/>
	<path style="fill:#25C2CE;" d="M188.253,278.579h-45.157H97.928H52.771v45.168v45.157v45.168v45.168v45.157h45.157v-45.157v-45.168
		h45.168v45.168h45.157v-45.168h45.168v-45.168v-45.157v-45.168H188.253z M188.253,368.904h-45.157H97.928v-45.157h45.168h45.157
		V368.904z"/>
</g>
<polygon style="fill:#ED3B72;" points="368.903,52.771 414.071,52.771 459.238,52.771 459.238,7.604 414.071,7.604 368.903,7.604 
	323.746,7.604 278.578,7.604 278.578,52.771 278.578,97.929 278.578,143.096 278.578,188.254 278.578,233.421 323.746,233.421 
	368.903,233.421 414.071,233.421 459.238,233.421 459.238,188.254 414.071,188.254 368.903,188.254 323.746,188.254 
	323.746,143.096 323.746,143.096 368.903,143.096 414.071,143.096 414.071,97.929 368.903,97.929 323.746,97.929 323.746,52.771 "/>
<g>
	<polygon style="fill:#F4E662;" points="188.253,7.604 188.253,52.771 188.253,97.929 143.096,97.929 143.096,143.096 
		188.253,143.096 188.253,188.254 188.253,233.421 233.421,233.421 233.421,188.254 233.421,143.096 233.421,97.929 233.421,52.771 
		233.421,7.604 	"/>
	<polygon style="fill:#F4E662;" points="97.928,52.771 97.928,7.604 52.771,7.604 52.771,52.771 52.771,97.929 52.771,143.096 
		52.771,188.254 52.771,233.421 97.928,233.421 97.928,188.254 97.928,143.096 97.928,97.929 143.096,97.929 143.096,52.771 	"/>
</g>
<path d="M233.421,0h-45.157c-4.199,0-7.604,3.405-7.604,7.604v45.157c0,0.002,0,0.003,0,0.005c0,0.002,0,0.003,0,0.005v37.553H150.7
	V52.771c0-4.199-3.405-7.604-7.604-7.604h-37.564V7.604c0-4.199-3.405-7.604-7.604-7.604H52.771c-4.199,0-7.604,3.405-7.604,7.604
	v45.157c0,0.002,0,0.003,0,0.005c0,0.002,0,0.003,0,0.005v45.157v45.157v45.157c0,0.002,0,0.003,0,0.005s0,0.003,0,0.005v45.157
	c0,4.199,3.405,7.604,7.604,7.604h45.157c4.199,0,7.604-3.405,7.604-7.604v-45.157c0-0.002,0-0.003,0-0.005s0-0.003,0-0.005v-45.157
	v-37.553h29.96v37.553c0,4.199,3.405,7.604,7.604,7.604h37.564v37.564v45.157c0,4.199,3.405,7.604,7.604,7.604h45.157
	c4.199,0,7.604-3.405,7.604-7.604v-45.157v-45.157c0-0.002,0-0.003,0-0.005s0-0.003,0-0.005V97.929V52.771c0-0.002,0-0.003,0-0.005
	c0-0.002,0-0.003,0-0.005V7.604C241.025,3.405,237.62,0,233.421,0z M225.817,90.325h-29.949V60.375h29.949L225.817,90.325
	L225.817,90.325z M225.817,135.482h-29.949v-29.949h29.949L225.817,135.482L225.817,135.482z M195.867,150.7h29.949v29.949h-29.949
	V150.7z M195.867,15.208h29.949v29.949h-29.949V15.208z M90.324,135.482H60.375v-29.949h29.949V135.482z M60.375,150.69h29.949
	v29.949H60.375V150.69z M90.324,90.325H60.375V60.375h29.949V90.325z M60.375,15.208h29.949v29.949H60.375V15.208z M90.324,225.807
	H60.375v-29.949h29.949V225.807z M105.543,60.375h29.949v29.949h-29.949V60.375z M180.649,135.482H150.7v-29.949h29.949V135.482z
	 M225.817,225.807h-29.949v-29.949h29.949L225.817,225.807L225.817,225.807z"/>
<path d="M459.228,180.65h-45.157c-0.002,0-0.003,0-0.005,0s-0.003,0-0.005,0h-45.157H331.34V150.7h37.553
	c0.07,0,0.137-0.008,0.206-0.01h44.962c4.199,0,7.604-3.405,7.604-7.604V97.929c0-4.199-3.405-7.604-7.604-7.604h-45.157
	c-0.07,0-0.137,0.008-0.206,0.01H331.34v-29.96h37.553h45.157h7.554c4.199,0,7.604-3.405,7.604-7.604
	c0-4.183-3.378-7.578-7.554-7.604V15.218h29.949v29.961c-4.005,0.217-7.185,3.533-7.185,7.593c0,4.199,3.405,7.604,7.604,7.604
	h7.185c4.199,0,7.604-3.405,7.604-7.604V7.614c0-4.199-3.405-7.604-7.604-7.604H414.05h-45.157h-45.157h-45.157
	c-4.199,0-7.604,3.405-7.604,7.604v45.157c0,0.002,0,0.003,0,0.005c0,0.002,0,0.003,0,0.005v45.157v45.157c0,0.002,0,0.003,0,0.005
	s0,0.003,0,0.005v45.157v45.157c0,4.199,3.405,7.604,7.604,7.604h45.157c0.066,0,0.131-0.008,0.197-0.01h44.972h45.157
	c0.002,0,0.003,0,0.005,0s0.003,0,0.005,0h45.157c4.199,0,7.604-3.405,7.604-7.604v-45.157
	C466.832,184.054,463.427,180.65,459.228,180.65z M286.182,105.543h29.949v29.949h-29.949V105.543z M316.132,90.335h-29.949V60.386
	h29.949V90.335z M286.182,150.71h29.949v29.949h-29.949V150.71z M376.507,105.533h29.949v29.949h-29.949V105.533z M361.289,135.492
	H331.34v-29.949h29.949V135.492z M406.446,45.168h-29.949V15.218h29.949V45.168z M361.289,45.168H331.34V15.218h29.949V45.168z
	 M286.182,15.218h29.949v29.949h-29.949V15.218z M316.132,225.817h-29.949v-29.949h29.949V225.817z M331.35,195.858h29.949v29.949
	H331.35V195.858z M406.457,225.807h-29.949v-29.949h29.949V225.807z M451.624,225.807h-29.949v-29.949h29.949V225.807z"/>
<path d="M459.228,316.142h-37.564v-37.564c0-4.199-3.405-7.604-7.604-7.604h-45.157h-45.157c-0.002,0-0.003,0-0.005,0
	s-0.003,0-0.005,0h-45.157c-4.199,0-7.604,3.405-7.604,7.604v45.157c0,0.002,0,0.003,0,0.005s0,0.003,0,0.005v45.157v45.157
	c0,0.002,0,0.003,0,0.005s0,0.004,0,0.005v45.157v45.157c0,4.199,3.405,7.604,7.604,7.604h44.972c0.066,0.001,0.13,0.01,0.197,0.01
	h45.157h45.157c4.199,0,7.604-3.405,7.604-7.604v-37.564h37.564c4.199,0,7.604-3.405,7.604-7.604v-45.157c0-0.001,0-0.003,0-0.005
	c0-0.001,0-0.003,0-0.005v-45.157v-45.157C466.832,319.547,463.427,316.142,459.228,316.142z M368.903,451.635H331.34v-37.564
	c0-0.001,0-0.003,0-0.005c0-0.001,0-0.003,0-0.005v-45.157V331.34h37.564h37.564v37.564v45.157c0,0.002,0,0.003,0,0.005
	s0,0.004,0,0.005v37.564H368.903z M286.182,376.508h29.949v29.949h-29.949V376.508z M316.132,361.3h-29.949V331.35h29.949V361.3z
	 M286.182,421.675h29.949v29.949h-29.949V421.675z M421.675,376.508h29.949v29.949h-29.949V376.508z M421.675,331.35h29.949V361.3
	h-29.949V331.35z M406.457,316.132h-29.949v-29.949h29.949V316.132z M331.35,286.183h29.949v29.949H331.35V286.183z
	 M286.182,286.183h29.949v29.949h-29.949V286.183z M316.132,496.782h-29.949v-29.949h29.949V496.782z M331.35,466.843h29.949v29.949
	H331.35V466.843z M406.457,496.792h-29.949v-29.949h29.949V496.792z M451.624,451.625h-29.949v-29.949h29.949V451.625z"/>
<path d="M233.411,286.183c4.199,0,7.604-3.405,7.604-7.604c0-4.199-3.405-7.604-7.604-7.604h-45.157h-45.157
	c-0.002,0-0.003,0-0.005,0s-0.003,0-0.005,0H97.928H52.771c-4.199,0-7.604,3.405-7.604,7.604v45.157c0,0.002,0,0.003,0,0.005
	s0,0.003,0,0.005v45.157v45.157c0,0.002,0,0.003,0,0.005s0,0.004,0,0.005v45.157v45.157c0,4.199,3.405,7.604,7.604,7.604h45.157
	c4.199,0,7.604-3.405,7.604-7.604v-45.157v-37.564h29.96v37.553c0,4.199,3.405,7.604,7.604,7.604h37.553v37.553
	c0,4.199,3.405,7.604,7.604,7.604h45.157c4.199,0,7.604-3.405,7.604-7.604v-45.157c0-4.199-3.405-7.604-7.604-7.604h-37.553v-29.949
	h37.553c4.199,0,7.604-3.405,7.604-7.604v-45.157c0-0.002,0-0.003,0-0.005s0-0.003,0-0.005v-45.157V304.94
	c0-4.199-3.405-7.604-7.604-7.604s-7.604,3.405-7.604,7.604v11.192h-29.949v-29.949L233.411,286.183L233.411,286.183z
	 M150.7,406.457v-29.949h29.949v29.949H150.7z M90.324,451.625H60.375v-29.949h29.949V451.625z M60.375,376.508h29.949v29.949
	H60.375V376.508z M90.324,361.3H60.375V331.35h29.949V361.3z M105.532,331.34h37.553c0.002,0,0.003,0,0.005,0
	c0.002,0,0.003,0,0.005,0h37.553v29.96h-37.553c-0.002,0-0.003,0-0.005,0c-0.002,0-0.003,0-0.005,0h-37.553
	C105.532,361.3,105.532,331.34,105.532,331.34z M150.7,286.183h29.949v29.949H150.7L150.7,286.183L150.7,286.183z M135.482,316.132
	h-29.949v-29.949h29.949V316.132z M60.375,286.183h29.949v29.949H60.375V286.183z M90.324,496.782H60.375v-29.949h29.949V496.782z
	 M135.482,406.457h-29.949v-29.949h29.949V406.457z M150.7,421.665h29.949v29.949H150.7L150.7,421.665L150.7,421.665z
	 M225.807,496.772h-29.949v-29.949h29.949V496.772z M225.807,406.457h-29.949v-29.949h29.949V406.457z M225.807,331.34v29.949
	h-29.949V331.34H225.807z"/>
<g>
</g>
<g>
</g>
<g>
</g>
<g>
</g>
<g>
</g>
<g>
</g>
<g>
</g>
<g>
</g>
<g>
</g>
<g>
</g>
<g>
</g>
<g>
</g>
<g>
</g>
<g>
</g>
<g>
</g>
</svg>
