<?xml version="1.0" encoding="UTF-8" standalone="no"?>
<!DOCTYPE svg PUBLIC "-//W3C//DTD SVG 1.1//EN" "http://www.w3.org/Graphics/SVG/1.1/DTD/svg11.dtd">
<svg width="100%" height="100%" viewBox="0 0 512 512" version="1.1" xmlns="http://www.w3.org/2000/svg" xmlns:xlink="http://www.w3.org/1999/xlink" xml:space="preserve" xmlns:serif="http://www.serif.com/" style="fill-rule:evenodd;clip-rule:evenodd;stroke-linejoin:round;stroke-miterlimit:1.41421;">
    <path d="M478.609,155.826L478.609,100.174L445.217,100.174L445.217,66.783L411.826,66.783L411.826,33.391L356.174,33.391L356.174,0L155.826,0L155.826,33.391L100.174,33.391L100.174,66.783L66.783,66.783L66.783,100.174L33.391,100.174L33.391,155.826L0.008,155.829L0.008,356.177L33.391,356.177L33.391,411.826L66.783,411.826L66.783,445.217L100.174,445.217L100.174,478.609L155.826,478.609L155.826,512L356.174,512L356.174,489.739L356.174,478.609L411.826,478.609L411.826,456.348L411.826,445.217L445.217,445.217L445.217,422.957L445.217,411.826L478.609,411.826L478.609,356.177L489.746,356.177L489.746,356.174L512,356.174L512,155.826L478.609,155.826Z" style="fill:rgb(255,222,70);fill-rule:nonzero;"/>
    <path d="M478.609,155.826L478.609,100.174L445.217,100.174L445.217,66.783L411.826,66.783L411.826,33.391L356.174,33.391L356.174,0L155.826,0L155.826,33.391L100.174,33.391L100.174,66.783L66.783,66.783L66.783,100.174L33.391,100.174L33.391,155.826L0,155.826L0,189.217L66.783,189.217L66.783,155.826L66.783,133.565L100.174,133.565L100.174,100.174L133.565,100.174L133.565,66.783L378.435,66.783L378.435,100.174L411.826,100.174L411.826,133.565L445.217,133.565L445.217,189.217L512,189.217L512,155.826L478.609,155.826Z" style="fill:white;fill-opacity:0;fill-rule:nonzero;"/>
    <rect x="100.174" y="33.391" width="55.652" height="33.391"/>
    <rect x="66.783" y="66.783" width="33.391" height="33.391"/>
    <rect x="33.391" y="100.174" width="33.391" height="55.652"/>
    <rect x="33.391" y="356.174" width="33.391" height="55.652"/>
    <rect x="66.783" y="411.826" width="33.391" height="33.391"/>
    <rect x="100.174" y="445.217" width="55.652" height="33.391"/>
    <rect x="155.826" y="0" width="200.348" height="33.391"/>
    <rect x="155.826" y="478.609" width="200.348" height="33.391"/>
    <rect x="0" y="155.826" width="33.391" height="200.348"/>
    <rect x="356.174" y="33.391" width="55.652" height="33.391"/>
    <rect x="411.826" y="66.783" width="33.391" height="33.391"/>
    <rect x="445.217" y="100.174" width="33.391" height="55.652"/>
    <rect x="445.217" y="356.174" width="33.391" height="55.652"/>
    <rect x="411.826" y="411.826" width="33.391" height="33.391"/>
    <rect x="356.174" y="445.217" width="55.652" height="33.391"/>
    <rect x="478.609" y="155.826" width="33.391" height="200.348"/>
    <rect x="133.565" y="311.652" width="33.391" height="66.783"/>
    <rect x="345.043" y="311.652" width="33.391" height="66.783"/>
    <rect x="166.957" y="378.435" width="178.087" height="33.391"/>
    <rect x="122.435" y="133.565" width="66.783" height="133.565"/>
    <rect x="322.783" y="133.565" width="66.783" height="133.565"/>
</svg>
