<svg xmlns="http://www.w3.org/2000/svg" xmlns:xlink="http://www.w3.org/1999/xlink" version="1.1" x="0px" y="0px" viewBox="0 0 100 100" style="enable-background:new 0 0 100 100;" xml:space="preserve"><g><path d="M17.9,54.8c0.4,0.3,0.9,0.3,1.2,0l9.8-7.5l9.8,7.5c0.4,0.3,0.9,0.3,1.2,0l9.8-7.5l9.8,7.5c0.2,0.1,0.4,0.2,0.6,0.2   s0.4-0.1,0.6-0.2l9.8-7.5l9.8,7.5c0.4,0.3,0.9,0.3,1.2,0l10.4-8c0.4-0.3,0.5-1,0.2-1.4c-0.3-0.4-1-0.5-1.4-0.2L81,52.7l-9.8-7.5   c-0.4-0.3-0.9-0.3-1.2,0l-9.8,7.5l-9.8-7.5c-0.4-0.3-0.9-0.3-1.2,0l-9.8,7.5l-9.8-7.5c-0.4-0.3-0.9-0.3-1.2,0l-9.8,7.5l-9.8-7.5   c-0.4-0.3-1.1-0.3-1.4,0.2c-0.3,0.4-0.3,1.1,0.2,1.4L17.9,54.8z"></path></g></svg>